PathFileType	4	(X/Y/Z)	/Users/itak/Documents/Research/Walk-IL/dataset/trc/00342_00011.trc
DataRate	CameraRate	NumFrames	NumMarkers	Units	OrigDataRate	OrigDataStartFrame	OrigNumFrames
100.000000	100.000000	4	55	mm	100.000000	652	746
Frame#	Time	RPSI			LPSI			L3			STRN			T10			C7			CLAV			RBAK			LBAK			LSHO			LUPA			LAEL			LAOL			LWTS			LWPS			LFRA			LIFD			LHPS			LHTS			RSHO			RUPA			RAEL			RAOL			RWTS			RWPS			RFRA			RIFD			RHTS			RHPS			RBHD			LFHD			RFHD			LBHD			LHIP			RHIP			RASI			LASI			LKNE			LTHI			LANK			LTIP			LTOE			LMT1			LMT5			LHEE			RKNE			RTHI			RTIP			RTOE			RMT1			RMT5			RHEE			RANK			*53			*54			
		X1	Y1	Z1	X2	Y2	Z2	X3	Y3	Z3	X4	Y4	Z4	X5	Y5	Z5	X6	Y6	Z6	X7	Y7	Z7	X8	Y8	Z8	X9	Y9	Z9	X10	Y10	Z10	X11	Y11	Z11	X12	Y12	Z12	X13	Y13	Z13	X14	Y14	Z14	X15	Y15	Z15	X16	Y16	Z16	X17	Y17	Z17	X18	Y18	Z18	X19	Y19	Z19	X20	Y20	Z20	X21	Y21	Z21	X22	Y22	Z22	X23	Y23	Z23	X24	Y24	Z24	X25	Y25	Z25	X26	Y26	Z26	X27	Y27	Z27	X28	Y28	Z28	X29	Y29	Z29	X30	Y30	Z30	X31	Y31	Z31	X32	Y32	Z32	X33	Y33	Z33	X34	Y34	Z34	X35	Y35	Z35	X36	Y36	Z36	X37	Y37	Z37	X38	Y38	Z38	X39	Y39	Z39	X40	Y40	Z40	X41	Y41	Z41	X42	Y42	Z42	X43	Y43	Z43	X44	Y44	Z44	X45	Y45	Z45	X46	Y46	Z46	X47	Y47	Z47	X48	Y48	Z48	X49	Y49	Z49	X50	Y50	Z50	X51	Y51	Z51	X52	Y52	Z52	X53	Y53	Z53	X54	Y54	Z54	X55	Y55	Z55	

653	6.52	-325.6820983886719	989.7343139648438	1050.088256835938	-342.1793518066406	985.3350219726562	921.8340454101562	-333.1714477539062	1041.527587890625	985.0664672851562	-116.7800445556641	1234.283203125	945.327392578125	-351.5675354003906	1157.176635742188	966.4909057617188	-325.3482666015625	1405.878295898438	932.5518188476562	-165.4764251708984	1358.121215820312	935.1453857421875	-360.7960510253906	1269.311157226562	1012.840881347656	-337.5631408691406	1361.999633789062	833.9880981445312	-255.2764129638672	1378.822875976562	773.7088623046875	-264.2450866699219	1253.267333984375	716.1046752929688	-225.0606536865234	1051.883422851562	718.2531127929688	-287.6540222167969	1036.166137695312	774.4531860351562	-99.52284240722656	827.5875854492188	781.3089599609375	-136.8208618164062	806.5784912109375	727.2451171875	-197.2291412353516	949.4474487304688	718.6139526367188	-78.58187103271484	668.1427612304688	801.742431640625	-132.8293151855469	737.0309448242188	740.9341430664062	-79.11380767822266	749.226806640625	773.773681640625	-262.119140625	1408.906982421875	1091.735229492188	-268.380126953125	1352.436401367188	1161.821655273438	-241.2671661376953	1098.793823242188	1247.74658203125	-281.0449829101562	1073.212646484375	1165.654907226562	-104.2172927856445	884.7970581054688	1239.652709960938	-142.1295623779297	870.7991943359375	1305.654052734375	-210.3906097412109	1036.0947265625	1267.9130859375	-60.85801696777344	722.5208740234375	1261.587646484375	-58.06464385986328	795.0797729492188	1270.093383789062	-111.1869125366211	791.6599731445312	1315.227294921875	-283.9452209472656	1620.707885742188	1001.536682128906	-113.2206954956055	1627.009643554688	882.3592529296875	-122.7566375732422	1633.122924804688	982.721923828125	-297.2958068847656	1607.317260742188	858.2720947265625	-249.0975036621094	920.503173828125	790.42578125	-233.8474273681641	937.4376220703125	1149.77880859375	-135.3832855224609	966.4596557617188	1095.09814453125	-142.2641143798828	954.5907592773438	854.7055053710938	-168.4927673339844	463.9461364746094	848.0975952148438	-190.7223815917969	603.917724609375	825.4003295898438	-275.6211853027344	50.115478515625	876.6018676757812	-219.6037902832031	249.8419189453125	851.8972778320312	-73.65810394287109	57.89142990112305	941.8263549804688	-142.2622985839844	39.11948013305664	979.827880859375	-150.6964111328125	50.70483779907227	867.3645629882812	-311.0399475097656	47.37432098388672	942.4197998046875	-176.880126953125	473.3789367675781	1151.951293945312	-152.2084045410156	734.8837890625	1153.628662109375	-171.7008972167969	353.6787109375	1141.734130859375	-65.64705657958984	46.5711669921875	1078.578979492188	-122.7533874511719	47.06488418579102	1043.999145507812	-149.8333587646484	35.58945465087891	1159.5283203125	-305.8654174804688	61.66629791259766	1113.883178710938	-249.4694366455078	53.56114959716797	1155.245971679688	nan	nan	nan	nan	nan	nan	
654	6.53	-324.314697265625	988.76806640625	1051.880249023438	-341.0431213378906	983.8472900390625	923.6832885742188	-332.2739868164062	1040.67236328125	986.6376342773438	-115.9293212890625	1233.51318359375	945.8690185546875	-350.644775390625	1156.296508789062	967.2586059570312	-324.506591796875	1405.056762695312	933.59326171875	-164.6446380615234	1357.379638671875	935.9478149414062	-360.035400390625	1268.322875976562	1013.703063964844	-336.83642578125	1361.246948242188	834.9596557617188	-254.5287322998047	1378.16943359375	774.553955078125	-263.2147521972656	1252.603149414062	716.8709716796875	-223.3675231933594	1051.245971679688	719.383056640625	-286.4714965820312	1035.425903320312	775.0759887695312	-98.57978057861328	826.7306518554688	783.7275390625	-135.1246795654297	805.9780883789062	729.0755004882812	-195.4580993652344	948.8836669921875	720.0162353515625	-78.37410736083984	667.27001953125	804.3901977539062	-131.4553070068359	736.3262329101562	742.7847900390625	-78.23520660400391	748.3178100585938	776.4529418945312	-261.1662902832031	1407.653198242188	1092.8583984375	-267.3581848144531	1350.862670898438	1162.754272460938	-239.746337890625	1096.86767578125	1247.603393554688	-279.160888671875	1071.469116210938	1165.315795898438	-102.326774597168	882.9872436523438	1239.015625	-140.0301208496094	869.0421142578125	1305.0693359375	-208.7340087890625	1034.225463867188	1267.630737304688	-59.25830078125	720.6005249023438	1260.506469726562	-56.24317932128906	793.1580200195312	1269.10107421875	-109.1915054321289	789.7714233398438	1314.401489257812	-282.6898193359375	1619.856689453125	1003.340515136719	-112.5195541381836	1626.459716796875	883.4984130859375	-121.5820999145508	1632.237548828125	983.8804931640625	-296.6755981445312	1606.964477539062	860.120849609375	-247.911376953125	919.7636108398438	792.008544921875	-232.0504608154297	937.0737915039062	1151.562377929688	-133.8624267578125	966.2701416015625	1096.439208984375	-140.8583831787109	953.75537109375	856.0970458984375	-168.1393432617188	462.6075134277344	849.5111694335938	-190.1154632568359	602.94970703125	827.2705688476562	-273.535888671875	50.1358528137207	877.0681762695312	-217.8489074707031	248.8831481933594	853.2836303710938	-72.08319854736328	54.59512329101562	944.8230590820312	-141.6164855957031	37.05068588256836	982.0781860351562	-148.4116821289062	49.35948944091797	869.2529296875	-309.9023132324219	47.10759353637695	942.440673828125	-177.4807586669922	472.8302307128906	1153.01806640625	-151.154052734375	734.2118530273438	1155.363647460938	-172.3727874755859	353.13330078125	1142.395751953125	-65.62408447265625	46.62765502929688	1078.593994140625	-122.8676834106445	46.97878265380859	1044.004638671875	-149.7727966308594	35.62215805053711	1159.564697265625	-305.9554138183594	61.11777496337891	1113.72607421875	-249.6288909912109	53.47270202636719	1155.155639648438	nan	nan	nan	nan	nan	nan	
655	6.54	-323.0680236816406	987.7243041992188	1053.646240234375	-339.9174499511719	982.3723754882812	925.4921264648438	-331.4812927246094	1039.812255859375	988.2000122070312	-115.1386871337891	1232.75732421875	946.3410034179688	-349.786376953125	1155.393676757812	968.0379638671875	-323.7381591796875	1404.203247070312	934.5504150390625	-163.8998260498047	1356.634765625	936.6613159179688	-359.3444519042969	1267.3212890625	1014.494506835938	-336.177490234375	1360.434814453125	835.85888671875	-253.865966796875	1377.45068359375	775.301025390625	-262.3316040039062	1251.865356445312	717.570556640625	-221.8258056640625	1050.543701171875	720.3289184570312	-285.3901977539062	1034.597534179688	775.5237426757812	-97.63995361328125	825.9052734375	785.9285888671875	-133.4317474365234	805.3822021484375	730.6995849609375	-193.8039245605469	948.2579956054688	721.2158203125	-77.96323394775391	666.4861450195312	806.7640380859375	-130.001953125	735.6378173828125	744.4255981445312	-77.27198028564453	747.4842529296875	778.875244140625	-260.3036193847656	1406.388793945312	1093.901977539062	-266.4570007324219	1349.247924804688	1163.60546875	-238.4187316894531	1094.84423828125	1247.214111328125	-277.4234008789062	1069.677124023438	1164.703247070312	-100.8014373779297	880.9534301757812	1238.1630859375	-138.2650604248047	867.1622314453125	1304.2705078125	-207.3079223632812	1032.254150390625	1267.108642578125	-58.08826446533203	718.4810180664062	1259.320434570312	-54.7767219543457	791.0734252929688	1267.94775390625	-107.5720748901367	787.7604370117188	1313.406982421875	-281.548583984375	1618.975341796875	1005.015930175781	-111.9004364013672	1625.929565429688	884.5609741210938	-120.5204086303711	1631.354248046875	984.9591674804688	-296.1278991699219	1606.598266601562	861.8355712890625	-246.6796722412109	919.1091918945312	793.6896362304688	-230.4078674316406	936.5431518554688	1153.332885742188	-132.4970397949219	965.986572265625	1097.883666992188	-139.4070739746094	953.005126953125	857.5867919921875	-168.2309722900391	461.4650268554688	850.6958618164062	-189.6379852294922	602.1482543945312	829.0223388671875	-272.3025207519531	50.34223175048828	877.4849853515625	-216.9734497070312	248.1434173583984	854.4752197265625	-71.15886688232422	51.66841506958008	946.9824829101562	-141.4807586669922	35.26430511474609	983.7039794921875	-147.0180206298828	48.29780197143555	870.599853515625	-309.4043579101562	46.92777252197266	942.5472412109375	-178.2379455566406	472.1882019042969	1153.631225585938	-150.2507934570312	733.3961791992188	1156.98779296875	-173.2200012207031	352.5141296386719	1142.824462890625	-65.58772277832031	46.6650276184082	1078.648193359375	-122.9283981323242	46.85130310058594	1043.904418945312	-149.8601837158203	35.67123413085938	1159.472290039062	-306.1050720214844	60.49117660522461	1113.105590820312	-249.9473724365234	53.3780517578125	1154.709350585938	nan	nan	nan	nan	nan	nan	
656	6.55	-321.9293518066406	986.6493530273438	1055.379150390625	-338.7906799316406	980.996826171875	927.257080078125	-330.7783813476562	1038.9931640625	989.75439453125	-114.3924102783203	1232.05859375	946.7850341796875	-348.9811706542969	1154.511108398438	968.8604125976562	-323.0362243652344	1403.359130859375	935.449951171875	-163.2315216064453	1355.925537109375	937.3182373046875	-358.7080688476562	1266.356201171875	1015.244873046875	-335.5753479003906	1359.601196289062	836.7120971679688	-253.2751159667969	1376.702392578125	775.9844970703125	-261.590576171875	1251.09326171875	718.2377319335938	-220.4569549560547	1049.812255859375	721.1116333007812	-284.4207763671875	1033.7255859375	775.8295288085938	-96.71726226806641	825.1451416015625	787.8909912109375	-131.7823791503906	804.8145141601562	732.1160278320312	-192.2984466552734	947.6021728515625	722.2241821289062	-77.33956909179688	665.8184204101562	808.83740234375	-128.5037841796875	734.9922485351562	745.8558959960938	-76.24160003662109	746.7603149414062	781.0100708007812	-259.5207824707031	1405.16748046875	1094.888793945312	-265.6690063476562	1347.651123046875	1164.399536132812	-237.2740173339844	1092.782104492188	1246.594604492188	-275.8259887695312	1067.901611328125	1163.833740234375	-99.62446594238281	878.7647705078125	1237.099731445312	-136.8314361572266	865.20703125	1303.2578125	-206.099609375	1030.236328125	1266.358520507812	-57.3268928527832	716.221923828125	1258.023315429688	-53.65065383911133	788.8845825195312	1266.64208984375	-106.3278656005859	785.6765747070312	1312.241943359375	-280.51318359375	1618.102172851562	1006.565368652344	-111.3576507568359	1625.445556640625	885.5361328125	-119.5642166137695	1630.51416015625	985.9509887695312	-295.6495666503906	1606.237548828125	863.4203491210938	-245.4121856689453	918.5850830078125	795.4754638671875	-228.9267578125	935.86279296875	1155.078247070312	-131.2820129394531	965.629638671875	1099.439697265625	-137.9199981689453	952.3851318359375	859.1812744140625	-168.8322143554688	460.5803527832031	851.634033203125	-189.3750457763672	601.55810546875	830.6426391601562	-271.7227783203125	50.65771484375	877.8800048828125	-216.910888671875	247.6320190429688	855.4577026367188	-70.70926666259766	49.23109436035156	948.3682861328125	-141.6573791503906	33.83395767211914	984.7566528320312	-146.3143920898438	47.51572418212891	871.4594116210938	-309.3490905761719	46.79698181152344	942.7631225585938	-179.0984344482422	471.4958190917969	1153.83837890625	-149.4808807373047	732.4769287109375	1158.495849609375	-174.1901092529297	351.8663940429688	1143.072998046875	-65.53788757324219	46.69004440307617	1078.73486328125	-122.9507675170898	46.69777297973633	1043.728637695312	-150.0522918701172	35.73508834838867	1159.292358398438	-306.2931518554688	59.82487487792969	1112.162963867188	-250.3792724609375	53.29296875	1154.006103515625	nan	nan	nan	nan	nan	nan	
